<?xml version="1.0" encoding="utf-8"?>
<svg version="1.0" width="881.000000pt" height="204.000000pt" viewBox="0 0 881.000000 204.000000" preserveAspectRatio="xMidYMid meet" xmlns="http://www.w3.org/2000/svg">
  <g transform="translate(0.000000,204.000000) scale(0.100000,-0.100000)" fill="#000000" stroke="none">
    <path d="M440 1785 l-435 -253 0 -512 0 -512 438 -254 437 -253 438 253 437 254 0 512 0 512 -439 254 c-241 140 -439 254 -440 253 0 0 -197 -115 -436 -254z m221 -532 c35 -17 99 -60 142 -97 l78 -67 75 70 c100 94 167 126 259 126 78 -1 130 -22 176 -72 51 -54 64 -91 64 -183 0 -73 -4 -93 -28 -142 -16 -32 -44 -71 -64 -87 -107 -88 -280 -53 -417 85 l-65 64 -31 -40 c-43 -54 -143 -124 -208 -145 -262 -86 -456 253 -260 455 76 77 164 88 279 33z" style="fill: rgb(51, 51, 51);"/>
    <path d="M480 1171 c-47 -25 -94 -112 -87 -161 12 -93 71 -158 151 -167 64 -8 136 29 214 107 l62 63 -22 25 c-40 42 -145 122 -182 137 -48 20 -94 19 -136 -4z" style="fill: rgb(51, 51, 51);"/>
    <path d="M1123 1168 c-23 -13 -72 -52 -109 -86 l-67 -64 58 -58 c125 -127 239 -150 313 -65 64 72 62 182 -2 253 -30 32 -40 36 -92 40 -48 3 -67 -1 -101 -20z" style="fill: rgb(51, 51, 51);"/>
    <path d="M2457 1433 c-4 -3 -7 -190 -7 -415 l0 -408 285 0 285 0 0 75 0 75 -185 0 -185 0 0 100 0 100 160 0 160 0 0 75 0 75 -160 0 -160 0 0 85 0 85 185 0 185 0 0 80 0 80 -278 0 c-153 0 -282 -3 -285 -7z" style="fill: rgb(51, 51, 51);"/>
    <path d="M3310 1360 l0 -80 120 0 120 0 0 -335 0 -335 100 0 100 0 0 335 0 335 125 0 125 0 0 80 0 80 -345 0 -345 0 0 -80z" style="fill: rgb(51, 51, 51);"/>
    <path d="M4320 1025 l0 -415 285 0 285 0 0 75 0 75 -185 0 -185 0 0 100 0 100 155 0 155 0 0 75 0 75 -155 0 -155 0 0 85 0 85 185 0 185 0 0 80 0 80 -285 0 -285 0 0 -415z" style="fill: rgb(51, 51, 51);"/>
    <path d="M5200 1025 l0 -415 100 0 100 0 0 145 0 145 55 0 55 0 72 -145 73 -145 107 0 c60 0 108 3 108 6 0 3 -38 79 -86 169 l-85 164 41 27 c59 39 92 100 98 183 10 152 -63 241 -223 270 -32 6 -139 11 -237 11 l-178 0 0 -415z m406 232 c22 -19 28 -34 32 -80 4 -52 2 -58 -25 -86 -32 -32 -85 -45 -163 -39 l-45 3 -3 113 -3 112 90 0 c80 0 93 -3 117 -23z" style="fill: rgb(51, 51, 51);"/>
    <path d="M6197 1433 c-4 -3 -7 -190 -7 -415 l0 -408 100 0 100 0 0 251 c0 139 4 248 9 245 4 -3 71 -116 147 -250 l139 -245 103 -1 102 0 -2 413 -3 412 -97 3 -98 3 0 -251 c0 -144 -4 -249 -9 -246 -5 3 -71 116 -147 251 l-139 245 -96 0 c-53 0 -99 -3 -102 -7z" style="fill: rgb(51, 51, 51);"/>
    <path d="M7250 1025 l0 -415 285 0 285 0 0 75 0 75 -185 0 -185 0 0 100 0 100 155 0 155 0 0 75 0 75 -155 0 -155 0 0 85 0 85 185 0 185 0 0 80 0 80 -285 0 -285 0 0 -415z" style="fill: rgb(51, 51, 51);"/>
    <path d="M8070 1435 c0 -3 59 -122 130 -265 l130 -260 0 -150 0 -150 105 0 105 0 0 150 0 150 130 260 c72 143 130 262 130 265 0 3 -48 4 -107 3 l-108 -3 -71 -168 c-39 -93 -74 -169 -78 -170 -4 -1 -40 75 -80 168 l-73 170 -106 3 c-59 1 -107 0 -107 -3z" style="fill: rgb(51, 51, 51);"/>
  </g>
</svg>